<mxfile host="65bd71144e">
    <diagram name="Page-1" id="EoBaXB56U9KILAJr6wrs">
        <mxGraphModel dx="1091" dy="862" grid="1" gridSize="10" guides="1" tooltips="1" connect="1" arrows="1" fold="1" page="1" pageScale="1" pageWidth="827" pageHeight="1169" background="#ffffff" math="0" shadow="0">
            <root>
                <mxCell id="0"/>
                <mxCell id="1" parent="0"/>
                <mxCell id="2" style="rounded=0;orthogonalLoop=1;jettySize=auto;html=1;exitX=1;exitY=0.25;exitDx=0;exitDy=0;entryX=0;entryY=0.5;entryDx=0;entryDy=0;fontSize=14;fillColor=#d5e8d4;strokeColor=#82b366;strokeWidth=2;fontColor=#000000;" parent="1" source="4" target="5" edge="1">
                    <mxGeometry relative="1" as="geometry"/>
                </mxCell>
                <mxCell id="3" style="rounded=0;orthogonalLoop=1;jettySize=auto;html=1;exitX=1;exitY=0.75;exitDx=0;exitDy=0;entryX=0;entryY=0.5;entryDx=0;entryDy=0;fontSize=14;fillColor=#f8cecc;strokeColor=#b85450;strokeWidth=2;fontColor=#000000;" parent="1" source="4" target="8" edge="1">
                    <mxGeometry relative="1" as="geometry"/>
                </mxCell>
                <mxCell id="4" value="Spring Boot App" style="rounded=1;whiteSpace=wrap;html=1;fontSize=14;fillColor=#dae8fc;strokeColor=#6c8ebf;fontColor=#000000;" parent="1" vertex="1">
                    <mxGeometry x="40" y="310" width="120" height="60" as="geometry"/>
                </mxCell>
                <mxCell id="5" value="Tempo&lt;br style=&quot;font-size: 14px;&quot;&gt;(Traces)" style="rounded=1;whiteSpace=wrap;html=1;fontSize=14;fillColor=#d5e8d4;strokeColor=#82b366;fontColor=#000000;" parent="1" vertex="1">
                    <mxGeometry x="410" y="202.5" width="120" height="60" as="geometry"/>
                </mxCell>
                <mxCell id="6" style="edgeStyle=orthogonalEdgeStyle;rounded=0;orthogonalLoop=1;jettySize=auto;html=1;exitX=0;exitY=0.5;exitDx=0;exitDy=0;fontSize=14;fillColor=#e1d5e7;strokeColor=#9673a6;strokeWidth=2;fontColor=#000000;" parent="1" source="7" target="4" edge="1">
                    <mxGeometry relative="1" as="geometry"/>
                </mxCell>
                <mxCell id="7" value="Prometheus&lt;br style=&quot;font-size: 14px;&quot;&gt;(Metrics)" style="rounded=1;whiteSpace=wrap;html=1;fontSize=14;fillColor=#e1d5e7;strokeColor=#9673a6;fontColor=#000000;" parent="1" vertex="1">
                    <mxGeometry x="410" y="310.5" width="120" height="60" as="geometry"/>
                </mxCell>
                <mxCell id="8" value="Loki&lt;br style=&quot;font-size: 14px;&quot;&gt;(Logs)" style="rounded=1;whiteSpace=wrap;html=1;fontSize=14;fillColor=#f8cecc;strokeColor=#b85450;fontColor=#000000;" parent="1" vertex="1">
                    <mxGeometry x="410" y="417.5" width="120" height="60" as="geometry"/>
                </mxCell>
                <mxCell id="9" style="edgeStyle=orthogonalEdgeStyle;rounded=0;orthogonalLoop=1;jettySize=auto;html=1;exitX=0;exitY=0.5;exitDx=0;exitDy=0;fontSize=14;fillColor=#ffe6cc;strokeColor=#d79b00;strokeWidth=2;fontColor=#000000;" parent="1" source="12" target="7" edge="1">
                    <mxGeometry relative="1" as="geometry"/>
                </mxCell>
                <mxCell id="10" style="edgeStyle=orthogonalEdgeStyle;rounded=0;orthogonalLoop=1;jettySize=auto;html=1;exitX=0;exitY=0.5;exitDx=0;exitDy=0;entryX=1;entryY=0.5;entryDx=0;entryDy=0;fontSize=14;fillColor=#ffe6cc;strokeColor=#d79b00;strokeWidth=2;fontColor=#000000;" parent="1" source="12" target="5" edge="1">
                    <mxGeometry relative="1" as="geometry">
                        <Array as="points">
                            <mxPoint x="570" y="340"/>
                            <mxPoint x="570" y="233"/>
                        </Array>
                    </mxGeometry>
                </mxCell>
                <mxCell id="11" style="edgeStyle=orthogonalEdgeStyle;rounded=0;orthogonalLoop=1;jettySize=auto;html=1;exitX=0;exitY=0.5;exitDx=0;exitDy=0;entryX=1;entryY=0.5;entryDx=0;entryDy=0;fontSize=14;fillColor=#ffe6cc;strokeColor=#d79b00;strokeWidth=2;fontColor=#000000;" parent="1" source="12" target="8" edge="1">
                    <mxGeometry relative="1" as="geometry">
                        <Array as="points">
                            <mxPoint x="570" y="340"/>
                            <mxPoint x="570" y="448"/>
                        </Array>
                    </mxGeometry>
                </mxCell>
                <mxCell id="12" value="Grafana" style="rounded=1;whiteSpace=wrap;html=1;fontSize=14;fillColor=#ffe6cc;strokeColor=#d79b00;fontColor=#000000;" parent="1" vertex="1">
                    <mxGeometry x="650" y="310" width="120" height="60" as="geometry"/>
                </mxCell>
                <mxCell id="13" value="Query" style="text;html=1;strokeColor=none;fillColor=none;align=center;verticalAlign=middle;whiteSpace=wrap;rounded=0;fontColor=#000000;" parent="1" vertex="1">
                    <mxGeometry x="580" y="316" width="60" height="30" as="geometry"/>
                </mxCell>
                <mxCell id="14" value="Push with gRPC" style="text;html=1;strokeColor=none;fillColor=#FFFFFF;align=center;verticalAlign=middle;whiteSpace=wrap;rounded=0;fontColor=#000000;" parent="1" vertex="1">
                    <mxGeometry x="230" y="258" width="100" height="16" as="geometry"/>
                </mxCell>
                <mxCell id="15" value="Scrape from /actuator/metrics" style="text;html=1;strokeColor=none;fillColor=#FFFFFF;align=center;verticalAlign=middle;whiteSpace=wrap;rounded=0;fontColor=#000000;" parent="1" vertex="1">
                    <mxGeometry x="220" y="321" width="120" height="37" as="geometry"/>
                </mxCell>
                <mxCell id="16" value="Collect with Docker Loki plugin" style="text;html=1;strokeColor=none;fillColor=#FFFFFF;align=center;verticalAlign=middle;whiteSpace=wrap;rounded=0;fontColor=#000000;" parent="1" vertex="1">
                    <mxGeometry x="195" y="388" width="170" height="16" as="geometry"/>
                </mxCell>
            </root>
        </mxGraphModel>
    </diagram>
</mxfile>
